<?xml version="1.0" encoding="UTF-8" standalone="no"?>
<!-- Created with Inkscape (http://www.inkscape.org/) -->

<svg
   width="210mm"
   height="297mm"
   viewBox="0 0 210 297"
   version="1.1"
   id="svg1"
   xml:space="preserve"
   inkscape:version="1.3.2 (091e20e, 2023-11-25)"
   sodipodi:docname="knaus_van_ti_black_countour.svg"
   inkscape:export-filename="knaus_van_ti_wob.png"
   inkscape:export-xdpi="300"
   inkscape:export-ydpi="300"
   xmlns:inkscape="http://www.inkscape.org/namespaces/inkscape"
   xmlns:sodipodi="http://sodipodi.sourceforge.net/DTD/sodipodi-0.dtd"
   xmlns="http://www.w3.org/2000/svg"
   xmlns:svg="http://www.w3.org/2000/svg"><sodipodi:namedview
     id="namedview1"
     pagecolor="#ffffff"
     bordercolor="#000000"
     borderopacity="0.25"
     inkscape:showpageshadow="2"
     inkscape:pageopacity="0.0"
     inkscape:pagecheckerboard="0"
     inkscape:deskcolor="#d1d1d1"
     inkscape:document-units="mm"
     inkscape:zoom="1.3727308"
     inkscape:cx="404.3036"
     inkscape:cy="390.82682"
     inkscape:window-width="2560"
     inkscape:window-height="1316"
     inkscape:window-x="0"
     inkscape:window-y="25"
     inkscape:window-maximized="1"
     inkscape:current-layer="layer3" /><defs
     id="defs1" /><g
     inkscape:groupmode="layer"
     id="layer4"
     inkscape:label="background"
     style="display:inline"><g
       id="g4"
       style="fill:none"><rect
         style="display:inline;fill:none;stroke:#000000;stroke-width:0.7;stroke-linecap:round;stroke-linejoin:round"
         id="rect8"
         width="173.97952"
         height="130.49013"
         x="20.052719"
         y="16.437059"
         inkscape:export-filename="Knaus_Van_TI_wob.png"
         inkscape:export-xdpi="96"
         inkscape:export-ydpi="96" /></g></g><g
     inkscape:groupmode="layer"
     id="layer3"
     inkscape:label="draw layer"
     style="display:inline;opacity:1"><path
       style="display:inline;fill:#000000;stroke:#000000;stroke-width:1.50001;stroke-linecap:round;stroke-linejoin:round;stroke-dasharray:none"
       d="M 33.724287,114.21649 181.9711,116.74853"
       id="path33"
       sodipodi:nodetypes="cc"
       inkscape:label="ground" /><g
       id="g3"
       inkscape:label="Knaus Van TI"
       style="display:inline"><g
         id="g6"
         style="display:inline"
         inkscape:label="front wheel"
         transform="translate(0,-0.52916667)"><circle
           style="fill:#ffffff;stroke:#000000;stroke-width:0.7;stroke-linejoin:round;stroke-dasharray:none"
           id="circle3"
           cx="155.40282"
           cy="109.24215"
           r="7.1550131" /><circle
           style="fill:#000000;stroke:none;stroke-width:0.76087;stroke-linejoin:round"
           id="circle2"
           cx="155.40282"
           cy="109.24215"
           r="5.0019302" /><circle
           style="fill:#ffffff;stroke:#ffffff;stroke-width:0.3;stroke-linejoin:round"
           id="circle1"
           cx="155.40282"
           cy="109.24215"
           r="1.9721895" /></g><g
         id="g8"
         transform="translate(-73.617533,-1.8784547)"
         inkscape:label="back wheel"><circle
           style="fill:#ffffff;stroke:#000000;stroke-width:0.7;stroke-linejoin:round;stroke-dasharray:none;stroke-opacity:1"
           id="circle6"
           cx="155.40282"
           cy="109.24215"
           r="7.4028568" /><circle
           style="fill:#000000;stroke:none;stroke-width:0.76087;stroke-linejoin:round"
           id="circle7"
           cx="155.40282"
           cy="109.24215"
           r="5.0019302" /><circle
           style="fill:#ffffff;stroke:#ffffff;stroke-width:0.3;stroke-linejoin:round"
           id="circle8"
           cx="155.40282"
           cy="109.24215"
           r="1.9721895" /></g><g
         id="g1"
         style="display:inline"
         inkscape:label="driver cabin"><path
           id="path4"
           style="display:inline;fill:#ffffff;stroke:#000000;stroke-width:0.7;stroke-linejoin:round;stroke-dasharray:none"
           d="m 170.46958,109.24642 c 2.26693,-2.27587 1.56314,-9.509125 1.56314,-9.509125 l -1.04209,-1.215779 c 0,0 -0.17776,-3.473109 -1.17236,-4.776274 -2.94422,-3.857635 -12.72226,-7.077572 -12.72226,-7.077572 l -2.73551,-0.651309 c 0,0 -11.38151,-10.351046 -13.83462,-11.919664 -1.94892,-1.246221 -16.77133,-2.125097 -15.47428,-1.223391 l -0.304,36.286274 21.36014,0.28938 c 0.16381,-3.7866 1.40202,-6.77319 4.52345,-8.55692 3.12143,-1.783728 6.97711,-1.677535 9.99563,0.2753 3.01852,1.95283 4.69581,5.4262 4.34827,9.0045 0,0 4.18377,0.39047 5.49449,-0.92542 z"
           sodipodi:nodetypes="accaccscccssca" /><path
           style="display:inline;fill:#ffffff;stroke:#000000;stroke-width:0.7;stroke-linecap:round;stroke-linejoin:round;stroke-dasharray:none"
           d="m 126.22617,91.44159 43.69248,2.446559"
           id="path5"
           sodipodi:nodetypes="cc" /><path
           style="fill:#000000;stroke:#000000;stroke-width:0.7;stroke-linecap:round;stroke-linejoin:round;stroke-dasharray:none"
           d="m 126.89142,106.97975 15.82445,0.33947"
           id="path30"
           sodipodi:nodetypes="cc" /><path
           style="display:inline;opacity:1;fill:#000000;stroke:#000000;stroke-width:0.7;stroke-linecap:round;stroke-linejoin:round;stroke-dasharray:none"
           d="m 126.72499,101.00341 16.85485,0.73894"
           id="path34"
           sodipodi:nodetypes="cc" /><path
           style="display:inline;fill:none;stroke:#000000;stroke-width:0.7;stroke-linecap:round;stroke-linejoin:round;stroke-dasharray:none"
           d="m 162.90023,93.494565 c 0,0 2.39511,3.583994 4.23338,4.526841 1.15355,0.591657 3.84689,0.439308 3.84689,0.439308 l -1.05662,-4.556212 z"
           id="path6"
           sodipodi:nodetypes="csc" /><path
           style="display:inline;fill:#000000;stroke:#000000;stroke-width:0.7;stroke-linecap:round;stroke-linejoin:round;stroke-dasharray:none"
           d="m 127.91157,74.295674 0.89137,13.459684 c 0,0 16.65171,1.473422 22.99734,1.515327 0.60981,0.004 1.51533,-1.025075 1.51533,-1.025075 0,0 -7.79446,-8.551217 -12.61289,-11.632374 -1.50385,-0.961642 -3.20259,-1.671981 -4.9471,-2.050151 -2.55682,-0.55426 -7.84405,-0.267411 -7.84405,-0.267411 z"
           id="path26"
           sodipodi:nodetypes="ccscssc" /><path
           style="display:inline;fill:#ffffff;stroke:#ffffff;stroke-width:0.7;stroke-linecap:round;stroke-linejoin:round;stroke-dasharray:none"
           d="m 138.53271,74.828123 1.32671,14.485326"
           id="path28"
           sodipodi:nodetypes="cc" /><path
           style="fill:none;stroke:#000000;stroke-width:0.7;stroke-linecap:round;stroke-linejoin:round;stroke-dasharray:none"
           id="path29"
           sodipodi:type="arc"
           sodipodi:cx="155.27757"
           sodipodi:cy="106.54717"
           sodipodi:rx="11.29386"
           sodipodi:ry="10.040885"
           sodipodi:start="3.1133099"
           sodipodi:end="5.8545197"
           sodipodi:arc-type="arc"
           d="m 143.98823,106.83112 a 11.29386,10.040885 0 0 1 8.73138,-10.063901 11.29386,10.040885 0 0 1 12.82997,5.606381"
           sodipodi:open="true" /></g><g
         id="g2"
         style="display:inline"
         inkscape:label="living cabin"><path
           style="display:inline;fill:#ffffff;stroke:#000000;stroke-width:0.7;stroke-linecap:round;stroke-linejoin:round"
           d="m 40.27207,101.50756 c 0,0 -0.570041,0.7506 -0.648348,1.52679 -0.07831,0.77619 0.05286,2.11685 0.6018,2.96148 0.416674,0.64112 1.113801,1.20899 1.868744,1.33029 7.410029,1.19059 31.046669,0.62841 31.046669,0.62841 0.42429,-12.521906 17.087149,-12.378829 17.121735,0.38311 l 34.48493,0.82194 0.0257,-3.10913 L 91.717596,95.709418 70.733068,93.825593 44.425837,104.33082 40.272075,101.50756"
           id="path9"
           sodipodi:nodetypes="czascccccccc" /><path
           style="fill:#ffffff;stroke:#000000;stroke-width:0.7;stroke-linecap:round;stroke-linejoin:round"
           d="m 140.52588,74.096697 0.58672,-1.039656 c 0.24997,-1.135711 -0.27692,-2.209273 -1.20188,-3.250989 -4.42781,-4.312517 -9.95805,-7.580622 -17.21249,-9.21527 l -0.0973,-1.03844 -75.384289,-0.324514 -0.123078,0.451953 c -3.734436,1.233475 -6.532959,3.979931 -6.561882,7.823121 L 40.27207,101.9986 c -0.01297,1.72336 1.781354,2.78329 4.153762,2.82326 l 26.967003,0.45431 c 2.597326,-12.32989 20.095932,-11.524299 20.89101,1.03769 l 32.480205,0.85536 0.28755,-34.295914 c 4.41087,-0.111912 8.23763,-0.630086 15.47428,1.223391 z"
           id="path8"
           sodipodi:nodetypes="cccccccsssccccc" /><path
           style="fill:#000000;stroke:#000000;stroke-width:0.7;stroke-linecap:round;stroke-linejoin:round;stroke-dasharray:none"
           d="m 166.66777,102.91469 c 1.57738,0.17592 3.1774,0.2839 4.9843,-0.22876"
           id="path31"
           sodipodi:nodetypes="cc" /><path
           style="fill:#ffffff;stroke:#000000;stroke-width:0.7;stroke-linecap:round;stroke-linejoin:round"
           d="m 122.69823,60.099744 c 0,0 0.10343,2.139198 -0.21521,2.478227 -0.19806,0.210735 -74.370309,-0.576514 -74.370309,-0.576514 -0.762755,0.04702 -1.010337,-0.374301 -1.153028,-0.890976 l 0.0947,-1.529958 0.162258,-0.843733 75.384289,0.324514 z"
           id="path10"
           sodipodi:nodetypes="cscccccc" /><rect
           style="display:inline;fill:#ffffff;stroke:#000000;stroke-width:0.7;stroke-linecap:round;stroke-linejoin:round;stroke-dasharray:none"
           id="rect10"
           width="14.52775"
           height="20.721998"
           x="45.169098"
           y="82.077957"
           ry="1.5006688"
           transform="rotate(0.70344727)" /><rect
           style="display:inline;fill:#ffffff;stroke:#000000;stroke-width:0.7;stroke-linecap:round;stroke-linejoin:round;stroke-dasharray:none"
           id="rect11"
           width="8.1037827"
           height="11.353702"
           x="61.507729"
           y="85.737038"
           ry="1.5219514"
           transform="matrix(0.99992729,0.01205906,-0.01249922,0.99992188,0,0)" /><rect
           style="display:inline;fill:#000000;stroke:#000000;stroke-width:0.700129;stroke-linecap:round;stroke-linejoin:round;stroke-dasharray:none"
           id="rect12"
           width="13.717254"
           height="7.5409851"
           x="52.644516"
           y="66.96756"
           ry="1.4958292"
           transform="matrix(0.99998881,0.00472975,-0.0318565,0.99949245,0,0)"
           rx="1.5005834" /><rect
           style="display:inline;fill:#ffffff;stroke:#000000;stroke-width:0.700093;stroke-linecap:round;stroke-linejoin:round;stroke-dasharray:none"
           id="rect16"
           width="11.777058"
           height="38.798763"
           x="108.17552"
           y="63.529213"
           ry="1.5216229"
           transform="matrix(0.99959784,0.02835782,-0.00531384,0.99998588,0,0)"
           rx="1.5204477" /><rect
           style="display:inline;fill:#000000;stroke:#000000;stroke-width:0.700129;stroke-linecap:round;stroke-linejoin:round;stroke-dasharray:none"
           id="rect18"
           width="13.717254"
           height="7.5409851"
           x="92.481766"
           y="69.967926"
           ry="1.4958292"
           transform="matrix(0.99998881,0.00472975,-0.0318565,0.99949245,0,0)"
           rx="1.5005834" /><path
           style="display:inline;fill:#000000;stroke:#000000;stroke-width:0.7;stroke-linecap:round;stroke-linejoin:round;stroke-dasharray:none"
           d="m 45.22802,92.587087 0.717907,-0.12091 c -0.268395,0.384531 -0.385852,0.876055 0,1.579391 l -0.725463,-0.143582 z"
           id="path19"
           sodipodi:nodetypes="ccccc" /><rect
           style="display:inline;fill:#000000;stroke:#000000;stroke-width:0.700027;stroke-linecap:round;stroke-linejoin:round;stroke-dasharray:none"
           id="rect19"
           width="6.0771089"
           height="14.325545"
           x="111.00238"
           y="66.227264"
           ry="0.22276506"
           transform="matrix(0.99979412,0.02029084,-0.0074278,0.99997241,0,0)"
           rx="0.17979102" /><path
           style="fill:#000000;stroke:#000000;stroke-width:0.7;stroke-linecap:round;stroke-linejoin:round;stroke-dasharray:none"
           d="m 59.693768,99.465897 13.020215,0.07115"
           id="path20" /><path
           style="fill:#000000;stroke:#000000;stroke-width:0.7;stroke-linecap:round;stroke-linejoin:round;stroke-dasharray:none"
           d="m 91.639539,99.892789 14.229751,0.284601"
           id="path21"
           sodipodi:nodetypes="cc" /><path
           style="fill:#000000;stroke:#000000;stroke-width:0.7;stroke-linecap:round;stroke-linejoin:round;stroke-dasharray:none"
           d="m 120.38362,100.67542 1.06724,0.0712"
           id="path22"
           sodipodi:nodetypes="cc" /><path
           style="display:inline;fill:#000000;stroke:#000000;stroke-width:0.7;stroke-linecap:round;stroke-linejoin:round;stroke-dasharray:none"
           d="m 61.822087,91.62329 0.717907,-0.12091 c -0.268395,0.384531 -0.385852,0.876055 0,1.579391 l -0.725463,-0.143582 z"
           id="path23"
           sodipodi:nodetypes="ccccc" /><path
           style="display:inline;fill:#000000;stroke:#000000;stroke-width:0.7;stroke-linecap:round;stroke-linejoin:round;stroke-dasharray:none"
           d="m 109.67669,86.888115 0.71791,-0.12091 c -0.2684,0.384531 -0.38585,0.876055 0,1.579391 l -0.72547,-0.143582 z"
           id="path24"
           sodipodi:nodetypes="ccccc" /><path
           style="display:inline;fill:none;stroke:#000000;stroke-width:0.7;stroke-linecap:round;stroke-linejoin:round;stroke-dasharray:none"
           d="m 141.16977,72.33123 c -6.60249,-2.583449 -14.82213,-4.138354 -16.29515,-3.929915 -0.8247,0.116698 -1.00694,0.375367 -1.02039,0.809276 -0.32101,10.352917 -0.60341,37.918779 -0.60341,37.918779"
           id="path25"
           sodipodi:nodetypes="cssc" /></g></g></g></svg>
